<?xml version="1.0"?><svg width="640" height="480" xmlns="http://www.w3.org/2000/svg">
 <title>Monogram Letter L</title>
 <metadata id="metadata4">image/svg+xml</metadata>
 <g>
  <title>Layer 1</title>
  <g id="layer1">
   <path d="m311.401978,408.19101c-5.099976,-0.160004 -9.494995,-0.424011 -9.765991,-0.587006c-0.270996,-0.162994 -2.140991,-0.442017 -4.155975,-0.618011c-3.720032,-0.325989 -9.261017,-1.156006 -17.154999,-2.570007c-14.180023,-2.539978 -37.02301,-11.348999 -48.831009,-18.830994c-1.838013,-1.164978 -3.804001,-2.322998 -4.37001,-2.574982c-1.317001,-0.587006 -9.138992,-5.876007 -11.821991,-7.994995c-1.130997,-0.892029 -3.058899,-2.302002 -4.284805,-3.131012c-1.225388,-0.82901 -3.654099,-2.786011 -5.397186,-4.347015c-5.310318,-4.757996 -22.046707,-21.661987 -24.409714,-24.653992c-4.623291,-5.852997 -16.5392,-25.246002 -16.5392,-26.915985c0,-0.312012 -0.173401,-0.570007 -0.385498,-0.574005c-0.211899,-0.002991 -0.847794,-0.989014 -1.412903,-2.19101c-0.565094,-1.201996 -1.895096,-3.783997 -2.955704,-5.738007c-1.060394,-1.953979 -1.928085,-3.932983 -1.928085,-4.397003c0,-0.465973 -0.304214,-1.303986 -0.676102,-1.862976c-0.371796,-0.559998 -0.973999,-2.061005 -1.338104,-3.338013c-0.364105,-1.276001 -0.843399,-2.552002 -1.065094,-2.835999c-0.387604,-0.496002 -2.630798,-7.005981 -4.264801,-12.375977c-0.43161,-1.41803 -1.055405,-3.971039 -1.386505,-5.673004c-0.331299,-1.702026 -1.027893,-4.950012 -1.548309,-7.219025c-0.520294,-2.269012 -1.09549,-5.634003 -1.278091,-7.477997c-0.182693,-1.843018 -0.714005,-5.903992 -1.18071,-9.023987c-1.061096,-7.09201 -1.137894,-33.230011 -0.112183,-38.161011c0.353897,-1.701996 1.070984,-5.763 1.593597,-9.024002c1.368698,-8.543991 1.882996,-10.819 4.139404,-18.306992c3.926483,-13.032013 5.255386,-17.122009 6.392792,-19.675003c0.3983,-0.893005 0.724106,-1.781006 0.724106,-1.973007c0,-0.310989 7.901398,-16.406998 9.720398,-19.800995c2.182495,-4.072998 9.582993,-14.652496 15.355606,-21.950897c9.518585,-12.035095 31.038086,-30.747711 44.059082,-38.312195c5.128006,-2.978905 15.312012,-8.021904 19.533005,-9.672508c1.979004,-0.773903 4.524002,-1.813599 5.654007,-2.310402c1.853989,-0.814598 12.060974,-4.448799 15.934998,-5.673698c12.487,-3.948502 32.694977,-7.054802 44.718994,-6.874298c15.69101,0.235497 27.225983,1.329002 37.266998,3.5326c1.837006,0.403297 5.061005,1.091301 7.165009,1.5289c3.955994,0.823296 5.304993,1.217201 13.18399,3.849197c2.570007,0.858505 4.917999,1.560799 5.218018,1.560799c0.299988,0 2.548981,0.937302 4.997986,2.082901c2.449005,1.145699 5.536011,2.518501 6.860992,3.050896c10.434021,4.191101 30.657013,16.758301 36.662018,22.782806c0.483978,0.486008 1.404999,1.165604 2.046997,1.510101c3.919983,2.104507 21.777985,20.905899 27.837982,29.309402c3.621002,5.021301 8.057007,11.801392 8.749023,13.373398c0.332977,0.755997 0.889984,1.607986 1.237976,1.891006c0.347015,0.283997 1.468018,2.139984 2.491028,4.125992c1.021973,1.985001 2.138,3.958008 2.47998,4.382996c0.697998,0.87001 2.002991,3.591995 4.450012,9.283005c0.914001,2.126999 1.979004,4.324997 2.36499,4.884003c0.386017,0.559998 0.701996,1.416992 0.701996,1.903992c0,0.488007 0.442993,1.654999 0.984009,2.593002c0.540985,0.938004 1.276001,2.75 1.631989,4.026001c0.357025,1.277008 0.808014,2.552994 1.002014,2.837006c0.598999,0.871002 3.438995,11.067993 4.523987,16.243988c1.779999,8.490005 2.115021,10.442001 2.674011,15.583008c0.299988,2.755997 0.665985,5.541 0.812988,6.188004c0.147003,0.647003 0.356018,6.514008 0.46402,13.037018c0.147003,8.894958 -0.003021,13.214996 -0.598999,17.27597c-1.096008,7.451996 -1.067017,7.243011 -1.962006,14.181c-0.980011,7.600006 -0.994995,7.689026 -2.287994,13.40802c-1.687012,7.462982 -4.69101,17.268982 -6.5,21.220978c-0.408997,0.893005 -0.744019,1.778015 -0.744019,1.966003c0,0.187012 -0.605988,1.660004 -1.346985,3.274017c-0.740997,1.612976 -1.927002,4.208984 -2.63501,5.768982c-3.216003,7.076996 -6.876984,13.786011 -10.695984,19.596008c-1.39801,2.127014 -2.657013,3.984009 -2.798004,4.126007c-0.302002,0.302002 -1.539001,2.079987 -4.666016,6.703003c-2.384979,3.527985 -2.403992,3.553986 -5.377991,7.220001c-4.630005,5.708984 -6.854004,8.233002 -10.235992,11.617981c-4.568024,4.572021 -9.552002,9.009003 -10.121002,9.009003c-0.240021,0 -2.050018,1.485992 -4.020996,3.300995c-3.025024,2.785004 -9.605011,7.470001 -17.494019,12.457001c-2.148987,1.358002 -13.700989,7.611023 -18.761993,10.154999c-7.966003,4.005005 -23.561005,9.322998 -33.667999,11.481995c-0.423981,0.090027 -1.928009,0.434021 -3.341003,0.763c-1.414001,0.32901 -3.03299,0.664001 -3.597992,0.743011c-0.56601,0.07901 -1.838013,0.277008 -2.826996,0.440002c-2.097992,0.346008 -9.192017,1.22699 -13.622009,1.691986c-8.164001,0.858002 -11.475983,0.97403 -20.068024,0.706024zm7.360016,-3.350006c0.628998,-0.44101 1.143005,-1.136017 1.143005,-1.544006c0,-0.574005 0.433014,-0.662994 1.927002,-0.393982c2.615997,0.471985 4.720001,0.317993 5.593018,-0.409027c0.601959,-0.500977 0.34198,-0.963989 -1.531036,-2.722992c-2.455994,-2.307007 -5.006989,-5.876007 -7.954987,-11.128998c-1.618988,-2.884003 -1.912994,-3.182007 -2.048004,-2.078003c-0.088013,0.709015 -0.608002,2.27301 -1.156982,3.475006c-0.549011,1.201996 -0.997009,2.402985 -0.997009,2.666992c0,0.933014 -4.742004,5.695007 -7.494995,7.528992c-1.53302,1.02002 -2.786011,2.047028 -2.786011,2.282013c0,1.03299 5.51001,1.45401 7.192017,0.550995c0.764984,-0.41098 1.265991,-0.203979 2.496979,1.031006c1.737,1.742004 3.805023,2.015991 5.617004,0.742004zm-21.940002,-4.282013c6.78299,-2.341003 12.613007,-7.608002 15.490997,-13.994995c1.637024,-3.634003 2.34201,-8.90799 1.731995,-12.980988c-0.330994,-2.216003 -3.251984,-7.375 -5.279999,-9.324005c-5.511993,-5.300995 -10.632996,-7.544006 -18.139984,-7.947998c-8.093994,-0.43399 -15.350006,1.380005 -28.290009,7.072998c-5.04599,2.220001 -6,2.541992 -14.649994,4.945007c-4.36499,1.212982 -6.147003,1.431976 -11.822006,1.451996c-4.721985,0.015991 -7.209991,-0.196991 -8.481995,-0.726013c-3.617996,-1.506989 -7.460999,-4.941986 -8.745987,-7.816986c-0.302002,-0.677002 -0.884003,-1.812012 -1.291016,-2.520996c-1.005997,-1.749023 -0.960983,-6.891022 0.07901,-9.08902c0.459991,-0.972992 1.416992,-2.22699 2.125,-2.78598c4.742004,-3.740997 8.992996,4.539001 4.503998,8.769989c-0.713013,0.671997 -1.297012,1.604004 -1.297012,2.071014c0,1.340973 2.671021,3.991974 5.169022,5.127991c5.307983,2.415985 8.709991,0.596985 8.709991,-4.657013c0,-2.729004 -1.864014,-9.084991 -3.142014,-10.714996c-1.845993,-2.35498 -0.898987,-2.949005 1.256012,-0.786987c1.706009,1.712006 4.194,8.197998 4.889999,12.752991c0.632996,4.136993 0.955002,4.621002 3.610992,5.419006c1.100006,0.330994 2.28801,0.949005 2.639008,1.372986c1.003006,1.213013 1.610992,0.889008 4.541992,-2.414978c2.562012,-2.888 2.729004,-3.237 2.503006,-5.240021c-0.132996,-1.179993 -0.615005,-3.005005 -1.070999,-4.056c-1.341003,-3.087982 -6.552994,-9.123993 -10.345001,-11.97998c-1.019989,-0.768005 -1.018997,-0.774017 0.082001,-0.790009c1.082001,-0.015991 5.673996,3.268982 7.518997,5.377991c0.505997,0.578003 2.167007,2.799011 3.69101,4.936005c3.710983,5.199005 4.304001,5.667999 7.599991,6.01001c3.225983,0.333984 5.910004,-0.373016 8.772003,-2.309998c1.695007,-1.147003 3.841003,-4.024017 3.342987,-4.482025c-0.091003,-0.083984 -1.20697,-0.511993 -2.479004,-0.949982c-6.925964,-2.38501 -11.567963,-4.716003 -17.641983,-8.858002c-2.494003,-1.700989 -5.412003,-3.556 -6.485001,-4.123993c-1.072998,-0.567017 -2.270996,-1.302002 -2.662994,-1.632996c-1.125,-0.950012 -6.139008,-2.859009 -8.677002,-3.303009c-4.769012,-0.835999 -14.507996,2.003998 -15.914001,4.639008c-0.322998,0.60498 -0.790009,0.972992 -1.039001,0.819c-0.904999,-0.561005 -4.658096,3.945984 -6.436096,7.728973c-1.726105,3.673004 -2.103394,6.124023 -1.730713,11.239014c0.391205,5.368011 1.30101,7.739014 4.49202,11.709015c4.053787,5.041992 7.469788,7.18399 15.520798,9.731995c3.884003,1.227997 10.691986,1.269989 15.85199,0.095978c8.75,-1.98999 14.78299,-4.265991 19.325012,-7.289001c5.794006,-3.855988 14.607971,-7.112 21.391968,-7.90097c2.774017,-0.322021 9.947021,1.078979 12.692017,2.480988c6.528015,3.333008 9.431,10.022003 6.753998,15.569c-1.196991,2.480011 -4.237976,4.354004 -6.394989,3.94101c-1.764008,-0.338013 -3.859009,-2.949005 -3.859009,-4.808014c0,-1.966003 1.634003,-3.570007 3.637024,-3.570007c1.513977,0 1.573975,-0.082977 1.419983,-1.93399c-0.307007,-3.666992 -4.09201,-6.537994 -8.46701,-6.423004c-3.265991,0.087006 -4.744995,0.949005 -6.259003,3.652008c-1.33197,2.376007 -1.47998,5.949982 -0.359009,8.640991c1.210022,2.904999 4.667999,6.692993 6.945007,7.606995c2.35202,0.944 2.826996,2.015015 0.610992,1.378021c-5.781982,-1.665009 -10.849976,-8.453003 -10.880981,-14.576019c-0.016998,-3.39798 -1.778992,-5.04599 -5.403992,-5.056c-1.415985,-0.003998 -3.062012,-0.138 -3.657013,-0.298981c-0.872986,-0.235016 -1.54599,0.325989 -3.469971,2.894989c-2.006042,2.675995 -2.387024,3.552002 -2.387024,5.477997c0,2.019012 0.289001,2.602997 2.440979,4.925995c2.973022,3.209015 9.140015,7.873016 12.216003,9.238007c3.13501,1.390991 3.54303,2.239014 0.90802,1.88501c-4.35498,-0.585999 -8.826996,-3.338013 -14.213013,-8.746002c-2.790009,-2.802002 -5.781982,-5.460999 -6.648987,-5.911011c-4.002014,-2.075989 -13.401001,0.795013 -15.766006,4.817017c-1.513,2.573975 -1.358994,3.256989 0.733002,3.256989c3.429001,0 7.279007,1.165009 13.133987,3.972992c12.151031,5.828003 19.638031,8.799011 24.15802,9.585999c3.60199,0.628021 10.246002,0.321014 12.898987,-0.595001zm53.535004,-0.966003c0.355011,-0.279999 1.471985,-0.636993 2.481018,-0.791992c1.01001,-0.154999 3.669983,-1.136993 5.911987,-2.182007c2.240997,-1.044983 5.463013,-2.54599 7.158997,-3.335999c8.145996,-3.789978 12.730011,-5.171997 17.160004,-5.171997c2.011993,0 3.65799,-0.123993 3.65799,-0.274994c0,-2.174011 -5.278992,-8.492004 -7.095978,-8.492004c-0.508026,0 -1.160004,-0.238007 -1.451019,-0.528992c-0.289001,-0.291016 -1.733978,-0.673004 -3.209991,-0.847992c-4.561005,-0.542023 -6.07901,0.309998 -12.122986,6.803986c-4.253998,4.571014 -6.052032,6.110016 -8.611023,7.369995c-3.234985,1.593994 -6.059998,2.52002 -6.059998,1.987c0,-0.156982 1.445007,-1.052002 3.212006,-1.98999c3.813995,-2.026001 10.113983,-8.056 11.549011,-11.054993c1.281982,-2.678009 1.078003,-4.617004 -0.881012,-8.343994c-0.847992,-1.615021 -1.541992,-3.225006 -1.542999,-3.57901c-0.001007,-0.833008 0.026001,-0.835999 -4.289978,0.454987c-2.02301,0.604004 -4.19104,1.56601 -4.818024,2.136017c-1.214996,1.105988 -2.423004,4.352997 -2.993011,8.04599c-0.419983,2.716003 -1.817993,5.306 -4.303986,7.970001c-2.240021,2.401001 -4.106995,3.437988 -6.186981,3.437988c-2.132019,0 -1.976013,-0.815979 0.297974,-1.569977c2.151001,-0.710999 5.372009,-3.466003 6.81601,-5.828003c0.546997,-0.894012 1.160004,-2.787018 1.362,-4.205017c0.203003,-1.417999 0.43399,-2.946991 0.514008,-3.39798c0.25,-1.407013 -1.666016,-4.987 -3.190033,-5.960999c-0.800995,-0.512024 -1.60498,-1.140015 -1.78598,-1.397003c-0.410004,-0.580994 -3.597992,-0.01001 -5.781982,1.035004c-1.739014,0.832001 -3.912018,3.567993 -3.912018,4.927002c0,0.447998 0.597992,0.964996 1.32901,1.148987c3.640991,0.916992 5.109009,5.382996 2.45697,7.475006c-1.700958,1.342987 -5.138977,1.408997 -6.665985,0.127991c-1.70401,-1.428986 -2.259979,-2.89801 -2.259979,-5.971008c0,-5.006989 2.607971,-8.451996 8.712982,-11.513c2.695984,-1.350983 3.232025,-1.428986 9.792023,-1.423981c7.08197,0.005005 8.793976,0.35199 15.013977,3.044983c0.929993,0.402008 2.615997,1.130005 3.747009,1.615997c1.130981,0.487 2.96698,1.319 4.080994,1.848022c1.112,0.529999 2.200989,0.963989 2.417999,0.963989c0.21701,0 1.966003,0.727997 3.886993,1.618988c1.921021,0.890015 4.417999,2.036011 5.549011,2.546021c9.412994,4.246979 24.865997,4.161987 32.011993,-0.175995c8.097015,-4.914001 11.742004,-10.947021 12.307007,-20.367004c0.346008,-5.762024 -1.981995,-11.115997 -6.955017,-16c-3.592987,-3.529022 -6.53598,-4.981018 -11.919983,-5.881012c-7.772003,-1.298004 -11.701996,-0.619995 -19.014008,3.282013c-2.688995,1.43399 -6.134003,3.566986 -7.656006,4.73999c-8.98999,6.924988 -12.968994,9.093994 -16.685974,9.093994c-1.545013,0 -4.505035,1.493011 -3.033997,1.529999c0.352966,0.009003 0.642975,0.307007 0.643982,0.662018c0.003998,0.904999 2.848999,3.848999 4.598022,4.755981c2.412994,1.252014 5.870972,1.83902 7.710968,1.309998c1.912994,-0.549988 3.308014,-1.936005 6.128998,-6.088989c3.233002,-4.759003 9.989014,-10.34201 14.401001,-11.901001c1.446014,-0.510986 2.78302,-1.083008 2.970001,-1.270996c0.188019,-0.188995 0.650024,-0.34201 1.027008,-0.34201c1.507996,0 0.502014,0.880005 -3.108002,2.720001c-8.515991,4.339996 -16.902985,15.519012 -14.454987,19.269012c0.411987,0.628998 1.450989,1.561005 2.309998,2.070007c0.858978,0.508972 1.847992,1.583984 2.195984,2.388c0.519012,1.194977 0.869995,1.409973 1.920013,1.177979c0.707001,-0.156982 2.389984,-0.514008 3.740997,-0.794983c1.350006,-0.279999 2.889984,-0.743011 3.423004,-1.029022c1.052002,-0.565002 1.649994,-3.113983 1.516998,-6.462982c-0.100006,-2.527008 0.908997,-6.097015 2.404999,-8.509003c1.156982,-1.86499 6.191986,-6.70401 6.975983,-6.70401c0.850006,0 0.422028,0.65802 -2.457977,3.779999c-4.615997,5.001007 -5.776001,8.78302 -4.016998,13.098022c1.09198,2.682983 2.690002,3.70697 6.001984,3.845978c2.187012,0.09201 3.119995,-0.131989 4.425018,-1.065002c1.521973,-1.086975 3.686981,-4.442993 3.686981,-5.716003c0,-0.29599 -0.924988,-1.376984 -2.056,-2.401001c-1.596008,-1.446991 -2.056,-2.238983 -2.056,-3.538971c0,-4.15802 4.270996,-5.827026 7.610016,-2.975006c1.868988,1.595978 3.388977,6.266998 2.914978,8.960999c-1.136993,6.479004 -7.618988,12.065002 -15.500977,13.360992c-7.460022,1.225006 -17.322998,0 -22.872009,-2.842987c-0.940002,-0.481018 -3.007996,-1.300018 -4.596008,-1.819c-1.587982,-0.518005 -4.016998,-1.506012 -5.396973,-2.194c-2.335022,-1.165009 -9.89502,-4.08902 -14.105042,-5.456024c-5.73999,-1.863983 -16.403961,-2.010986 -21.302002,-0.293976c-7.145996,2.505981 -12.22699,8.919983 -13.893982,17.533997c-0.636993,3.294983 -0.61499,4.036987 0.221985,7.480988c2.018036,8.300995 6.203003,13.43399 13.039032,15.994019c2.303009,0.862976 3.665985,0.97699 9.497009,0.796997c3.744995,-0.115021 7.098969,-0.439026 7.452972,-0.719025zm-31.049011,-34.095001c2.132996,-1.997986 1.654022,-4.077972 -1.303986,-5.665985c-1.841003,-0.989014 -4.787994,0.681 -4.774017,2.70401c0.017029,2.397003 1.513,3.96698 4.179016,4.380981c0.182007,0.028015 1.036011,-0.610992 1.898987,-1.419006zm111.250031,-5.129974c1.195984,-1.078003 3.119995,-2.373016 4.277985,-2.878998c1.528992,-0.667023 2.335999,-1.447021 2.95401,-2.851013c0.46698,-1.063995 1.453979,-2.257996 2.191986,-2.653992c0.738007,-0.395996 2.033997,-1.730011 2.880005,-2.96402l1.539001,-2.243988l-4.036011,0.351013c-2.809998,0.243988 -5.47998,0.098999 -8.789978,-0.476013c-5.870026,-1.019989 -5.450012,-1.048004 -5.064026,0.333984c0.735016,2.628021 0.938019,10.080017 0.325012,11.94101c-1.253998,3.813019 0.386993,4.447998 3.722015,1.442017zm-224.125305,-5.70401c-0.255508,-6.326996 -0.207214,-6.764008 1.059387,-9.540009c0.730408,-1.600006 1.243896,-2.908997 1.141602,-2.908997c-0.102295,0 -1.236694,0.451996 -2.521301,1.003998c-3.655685,1.572998 -7.095993,2.005005 -11.991989,1.507019c-2.436996,-0.248016 -4.525909,-0.356018 -4.641617,-0.240021c-0.341293,0.343018 1.233704,3.031006 2.658508,4.539001c0.725311,0.768005 1.319,1.744019 1.319,2.170013c0,1.220978 3.719391,4.825989 5.408508,5.242004c1.483994,0.365997 3.843796,2.388977 3.843796,3.294983c0,0.436005 2.251907,1.442017 3.4095,1.52301c0.4189,0.028992 0.507294,-1.821991 0.314606,-6.591003zm128.635284,-0.35199c10.208008,-1.718018 16.330017,-3.5 26.471985,-7.705017c11.134033,-4.615997 20.393036,-9.648987 25.733032,-13.987c5.837982,-4.742004 13.884979,-12.044006 16.035004,-14.550995c1.138,-1.326996 2.223999,-2.528015 2.413971,-2.669006c0.280029,-0.209991 6.34903,-7.554993 8.976013,-10.863983c3.367004,-4.240021 9.84201,-16.506012 12.640991,-23.945007c0.640015,-1.701996 1.575012,-4.138 2.076996,-5.415009c0.502014,-1.276001 1.07901,-3.248993 1.282013,-4.382996c0.203003,-1.134979 0.575012,-2.325989 0.82901,-2.64801c0.252991,-0.320984 0.789001,-2.294006 1.190002,-4.382996c0.401001,-2.088989 1.082977,-5.317993 1.515991,-7.174988c0.803986,-3.45401 1.001007,-5.416992 1.628998,-16.219025c0.488007,-8.398987 0.484009,-8.743988 -0.208984,-17.365997c-0.853027,-10.622986 -3.529022,-21.71199 -7.509003,-31.108978c-2.473022,-5.839005 -7.039001,-15.113998 -8.446014,-17.157013c-1.53299,-2.223999 -5.213989,-8.314987 -5.213989,-8.625c0,-1.020996 -9.356995,-12.17099 -14.906006,-17.763992c-4.151001,-4.182007 -13.825012,-11.93309 -16.31601,-13.072189c-0.639008,-0.291412 -1.16098,-0.725113 -1.16098,-0.963318c0,-0.238297 -0.247009,-0.432693 -0.549011,-0.432693c-0.300995,0 -1.283997,-0.560501 -2.18399,-1.244797c-1.585022,-1.206192 -10.819,-5.985092 -15.001007,-7.764206c-9.333984,-3.970688 -22.382996,-7.757401 -30.841003,-8.951187c-21.645996,-3.053909 -43.433014,-0.4198 -61.871979,7.481491c-18.276016,7.831696 -29.149017,15.035904 -41.732025,27.651901c-7.386002,7.404007 -15.578003,18.291992 -18.297195,24.319c-0.389099,0.862 -0.926804,1.916 -1.194611,2.341003c-1.03009,1.633987 -5.666,11.838989 -5.668594,12.47699c-0.001999,0.37001 -0.320206,1.281998 -0.707794,2.027008c-0.899002,1.729004 -3.743103,10.746002 -4.451401,14.115997c-0.298111,1.419006 -0.750992,3.507004 -1.006393,4.641998c-1.49791,6.656006 -2.678101,18.832001 -2.400009,24.751984c0.159912,3.404022 0.400894,6.769012 0.53511,7.477997c0.134689,0.709015 0.395798,2.913025 0.580292,4.899017c0.47139,5.059998 2.734589,17.110992 3.906601,20.799988c3.130386,9.851013 6.524399,17.518036 11.886597,26.85202c8.225403,14.317993 14.018402,21.394989 24.913406,30.434998c6.349991,5.270996 5.377991,4.523987 10.334,7.929993c13.371994,9.186005 30.762009,16.446991 45.337997,18.928009c2.119995,0.360992 5.136993,0.940002 6.703979,1.286987c1.56604,0.347015 5.147034,0.677002 7.957031,0.734009c2.80899,0.057007 5.227966,0.230011 5.374969,0.384003c0.489014,0.513 16.644012,-0.350006 21.34201,-1.140991l0,0zm106.856018,-10.644012c1.164001,-0.334991 2.72998,-1.031006 3.47998,-1.546997c0.751007,-0.515015 1.593994,-0.937012 1.874023,-0.937012c0.280975,0 2.110992,-1.591003 4.06897,-3.53598c3.061005,-3.041016 4.519012,-5.151001 6.881012,-9.96402c0.253998,-0.516998 0.683014,-1.384003 0.953003,-1.927979c0.970001,-1.950012 1.684998,-7.966003 1.406006,-11.832001c-0.774994,-10.732025 -1.350006,-12.514008 -9.21701,-28.530029c-6.485992,-13.20697 -6.630005,-13.634003 -6.868988,-20.339966c-0.149994,-4.241028 -0.009003,-6.207001 0.544006,-7.534027c0.41098,-0.988007 0.862,-2.428986 1.001984,-3.201996c0.248016,-1.371979 0.501007,-1.790009 2.618988,-4.313995c3.028015,-3.610992 8.768005,-4.776001 13.309021,-2.699982c2.763,1.261963 3.260986,1.875 3.462982,4.256989c0.184998,2.188995 -1.550995,5.050995 -3.062988,5.050995c-1.686005,0 -3.649994,-1.278015 -4.55899,-2.966003c-1,-1.856018 -1.768005,-2.024017 -4.337006,-0.946991c-2.050018,0.858978 -4.041992,4.462006 -4.041992,7.312988c0,2.27301 2.02298,5.074005 4.220001,5.84201c5.23999,1.832001 12.603973,-1.358002 16.498993,-7.148987c0.464996,-0.692017 1.001007,-1.103027 1.190002,-0.912018c0.466003,0.46701 -2.053009,4.208984 -4.076019,6.056c-2.134003,1.947998 -3.845001,2.753998 -9.013,4.251007c-5.424988,1.571014 -6.283997,2.417999 -6.559998,6.463989c-0.203979,2.980988 -0.134003,3.204987 1.462006,4.737c2.466003,2.367004 5.256012,3.694 6.942993,3.302002c4.212006,-0.97998 10.556,-6.973999 13.26001,-12.527985c0.835999,-1.71701 1.808014,-3.127991 2.161987,-3.136017c0.860016,-0.019012 0.89801,-0.139008 -1.230988,3.904999c-2.774994,5.270996 -4.299988,7.312012 -8.341003,11.164001c-5.06601,4.82901 -6.240997,6.838013 -6.341003,10.841003c-0.127991,5.101013 3.257996,11.221008 6.765015,12.230011c1.886993,0.542999 1.811981,0.673004 2.563995,-4.468018c0.584991,-3.993988 2.253998,-8.488007 5.424988,-14.60498c2.124023,-4.097015 4.102997,-8.527008 4.951996,-11.088013c0.28302,-0.850006 0.722015,-1.936981 0.978027,-2.416016c1.801971,-3.372986 1.845978,-15.89798 0.067993,-19.582001c-0.612,-1.268982 -1.113007,-2.53299 -1.113007,-2.809998c0,-0.27597 -1.561005,-2.165985 -3.468994,-4.199982c-2.791016,-2.973999 -4.274994,-4.072998 -7.582001,-5.613983c-3.455017,-1.608032 -4.645996,-1.911011 -7.453003,-1.888031c-8.515015,0.067017 -16.358002,4.795013 -19.596008,11.812012c-1.858002,4.028992 -2.527008,6.951996 -2.867981,12.539001c-0.457001,7.470978 1.238983,14.522003 5.837982,24.277985c1.002991,2.127014 2.356018,5.26001 3.007019,6.962006c0.649994,1.701996 1.592987,4.022003 2.093994,5.157013c0.501984,1.134003 0.962006,2.294006 1.022003,2.578003c0.059998,0.283997 0.493988,1.987 0.963989,3.786987c1.093994,4.195007 1.031006,14.15799 -0.113007,17.574005c-1.014008,3.028992 -4.596008,8.528992 -7.134003,10.951996c-5.755981,5.497009 -16.110992,3.272003 -16.110992,-3.462006c0,-3.050995 0.356995,-3.73999 2.515991,-4.845001c3.475006,-1.777985 6.222015,-0.160004 6.222015,3.667023c0,1.054993 0.216003,2.052002 0.47998,2.215973c0.264008,0.163025 1.40802,-0.075989 2.542999,-0.530975c3.459015,-1.388 5.865021,-5.548004 5.409027,-9.350006c-0.393005,-3.269012 -0.671021,-3.662994 -3.595001,-5.097992c-2.320007,-1.139008 -3.263,-1.331024 -5.335022,-1.085022c-2.737976,0.325012 -6.138,1.856018 -7.779999,3.503998c-0.571991,0.572998 -1.294983,0.956024 -1.608002,0.851013c-0.975983,-0.325012 5.212006,-4.976013 7.477997,-5.618988c1.183014,-0.335999 3.77002,-0.573029 5.749023,-0.527008c5.824005,0.136993 6.565002,-0.416992 7.131989,-5.330017c0.131012,-1.134979 0.399017,-2.700989 0.597015,-3.480988c0.258972,-1.028992 0.164978,-1.42099 -0.345001,-1.428986c-0.386017,-0.007019 -1.332001,-0.905029 -2.10202,-1.998016c-1.415985,-2.009003 -4.091003,-3.664001 -5.923004,-3.664001c-1.681976,0 -7.185974,3.936005 -11.867981,8.488007c-2.446014,2.377991 -4.535004,4.235992 -4.641998,4.130005c-0.106995,-0.106995 0.397003,-1.205017 1.117981,-2.440002c1.576996,-2.699005 7.259003,-8.347015 11.121002,-11.053009c1.539001,-1.07901 3.221008,-2.686005 3.736023,-3.570984c1.194,-2.053009 1.519989,-6.623016 0.652985,-9.154999c-0.625,-1.822021 -4.84201,-6.51001 -5.856995,-6.51001c-0.604004,0 -1.072998,1.321991 -1.072998,3.020996c0,1.38501 -2.261017,6.231018 -4.14801,8.888977c-0.54599,0.769043 -0.992981,1.540039 -0.992981,1.71402c0,0.173004 -1.120026,1.877991 -2.489014,3.787994c-1.369995,1.910004 -2.929016,4.285004 -3.463989,5.278015c-0.536011,0.992981 -1.249023,2.152985 -1.584015,2.578003c-2.867004,3.638 -5.70401,13.15799 -5.184998,17.399994c0.509003,4.162994 2.023987,9.76001 3.356995,12.404999c2.377014,4.714996 7.481018,9.204987 12.140991,10.679993c2.708008,0.858002 9.09201,0.945007 11.814026,0.160004l0,0l0,0l0,0zm-236.553802,-4.488007c3.994995,-1.992004 8.672791,-6.457001 10.30278,-9.835999c1.526016,-3.16098 2.090012,-6.213989 2.100021,-11.365997c0.010986,-5.428986 -0.570007,-7.906006 -2.649017,-11.294983c-0.891998,-1.45401 -1.621002,-2.740021 -1.621002,-2.858002c0,-0.117004 -0.925186,-1.611023 -2.056091,-3.319c-1.130798,-1.708008 -2.056,-3.264008 -2.056,-3.457001c0,-0.194 -1.492798,-2.594025 -3.316498,-5.334015c-1.824203,-2.73999 -3.962494,-6.653992 -4.752594,-8.697998c-0.800308,-2.069977 -1.744003,-3.714996 -2.131607,-3.714996c-0.383011,0 -1.703491,1.069977 -2.935104,2.377991c-1.755798,1.86499 -2.309494,2.89502 -2.564896,4.769989c-0.178909,1.315002 -0.396301,2.865997 -0.4832,3.445007c-0.345398,2.302002 1.027496,4.053009 4.80661,6.130005c4.051987,2.22702 9.512878,6.942993 10.696686,9.238007c0.415909,0.806 0.6595,1.562012 0.541809,1.681c-0.118195,0.118988 -1.81041,-1.308014 -3.760605,-3.17099c-5.537003,-5.288025 -12.087097,-8.003021 -15.717606,-6.515015c-1.586304,0.649994 -5.203888,5.218994 -4.675507,5.904999c0.268311,0.348999 0.773102,1.678009 1.121109,2.95401c0.877396,3.216003 2.132599,3.992004 6.752106,4.174988c3.704498,0.147003 4.5979,0.350006 7.986801,1.815002c2.620499,1.131012 5.544189,4.106018 5.106796,5.196014c-0.352707,0.875977 -0.400497,0.868988 -0.7798,-0.098022c-1.203796,-3.069 -10.419601,-6.319977 -14.021408,-4.945984c-1.472595,0.562012 -3.879791,4.292999 -4.473495,6.93399c-0.4888,2.175018 1.549805,7.376007 3.44751,8.795013c0.725296,0.541992 2.43959,1.093994 3.809387,1.225983l2.490997,0.240021l-0.305389,-3.031006c-0.266205,-2.647003 -0.163895,-3.179993 0.812195,-4.213013c1.516296,-1.602997 4.683197,-1.324982 6.581512,0.580017c3.492188,3.502991 -0.175308,9.498993 -6.208313,10.148987c-4.303406,0.463013 -7.203003,-0.665009 -10.490097,-4.082001c-3.229599,-3.355988 -4.63179,-6.436981 -5.331406,-11.712006c-1.108185,-8.352997 -0.162491,-12.738983 5.221405,-24.212006c0.54071,-1.152985 0.98381,-2.329987 0.98381,-2.615967c0,-0.285034 0.663101,-1.894012 1.473694,-3.575012c4.706894,-9.760986 5.721497,-12.413025 7.0569,-18.440002c0.725296,-3.273987 0.787506,-4.494019 0.328003,-6.445984c-0.311508,-1.325012 -0.714508,-3.314026 -0.895416,-4.420013c-0.181,-1.107025 -1.033691,-3.96701 -1.895187,-6.355988c-2.881592,-7.989014 -8.4664,-12.530029 -16.518295,-13.431c-10.872711,-1.216034 -17.116516,2.565979 -22.715698,13.758972c-0.983002,1.964996 -1.787399,4.017029 -1.787399,4.560028c0,0.542969 -0.155914,1.142975 -0.346405,1.334961c-0.415298,0.416016 -0.567902,1.961029 -0.676407,6.846008c-0.1203,5.421021 1.164795,9.854004 5.364502,18.505035c4.315598,8.888977 6.224304,13.973969 7.697693,20.509979c0.271713,1.204987 0.4729,1.347992 1.282104,0.912994c1.405396,-0.753998 4.962402,-4.234985 5.605194,-5.484985c0.933304,-1.813995 2.132706,-5.563995 2.14061,-6.693024c0.014404,-2.061981 -1.565704,-5.667969 -3.376404,-7.704987c-7.951294,-8.942017 -9.726395,-11.324005 -10.260895,-13.766022c-0.172104,-0.78598 -0.526306,-1.560974 -0.787308,-1.722961c-0.620087,-0.384033 -0.616089,-2.295013 0.004913,-2.295013c0.263687,0 0.637589,0.522003 0.830994,1.160004c1.06839,3.524994 7.762604,11.985992 11.371994,14.372986c1.97081,1.304016 3.24231,1.215027 5.336899,-0.375c0.973709,-0.73999 2.522217,-1.67099 3.441208,-2.070007l1.670502,-0.725983l0,-3.878998c0,-5.182007 -0.642014,-6.108002 -5.173813,-7.462006c-5.000992,-1.493988 -9.47319,-3.848022 -10.762894,-5.666016c-1.749298,-2.463989 -0.974289,-2.743988 1.376694,-0.496979c2.403305,2.296997 6.64711,4.625977 8.42981,4.625977c2.819,0 6.338409,-2.095978 7.595703,-4.523987c0.65329,-1.261993 -0.055496,-5.781006 -1.173004,-7.479004c-1.615601,-2.454987 -5.4328,-4.556 -5.4328,-2.992004c0,0.262024 -0.598907,1.19101 -1.330795,2.063019c-1.979095,2.360016 -4.354202,2.235992 -5.848709,-0.305023c-1.315491,-2.237 -1.101395,-3.638977 0.898605,-5.884979c1.194305,-1.341003 1.879898,-1.624023 4.519608,-1.863983c3.625595,-0.330017 5.109695,0.265991 8.232895,3.306976c2.908295,2.832001 5.099106,8.864014 5.014801,13.811005c-0.098206,5.776978 -1.782104,11.606995 -5.664001,19.612c-1.930099,3.97998 -4.181808,9.317017 -5.003601,11.860992c-0.821899,2.544006 -1.692398,5.08902 -1.934402,5.657013c-0.722595,1.692993 -2.988098,13.259979 -2.992493,15.277985c-0.006012,2.757019 1.508194,9.067017 2.954391,12.311005c2.427002,5.442993 2.713913,5.946014 4.7556,8.334015c3.582703,4.191986 9.381302,6.122986 17.730011,5.906982c2.926788,-0.075989 4.238602,-0.412994 7.030701,-1.806l0,0l0,0l0,0l0,0zm-41.110306,-81.123993c-0.725403,-0.729004 -0.806107,-1.444 -0.162796,-1.444c0.249786,0 0.575089,0.46402 0.7229,1.031006c0.313797,1.20401 0.264694,1.23999 -0.560104,0.412994zm244.273087,70.459991c2.167023,-2.173981 -0.117004,-6.411987 -3.454987,-6.411987c-3.02301,0 -4.466003,2.699982 -3.027008,5.666992c1.307007,2.696014 4.205017,3.029999 6.481995,0.744995zm-181.33699,-1.315002c0.469009,-0.390991 0.693008,-1.319977 0.597,-2.471985c-0.12001,-1.429016 -0.475006,-1.998016 -1.575989,-2.524994c-3.473007,-1.662018 -6.660019,2.36499 -4.110016,5.191986c0.978012,1.084015 3.675995,0.981018 5.089005,-0.195007zm-73.654495,-82.225983c2.248093,-3.249023 5.621704,-6.095001 10.409897,-8.781006c2.906204,-1.630005 3.808197,-2.787994 2.172195,-2.787994c-0.298691,0 -2.2733,-0.812988 -4.388,-1.807007c-3.998001,-1.878021 -9.933197,-7.121002 -10.88829,-9.617981l-0.462799,-1.209015l-0.611099,1.546997c-0.336105,0.851013 -0.620911,2.822998 -0.633011,4.382996c-0.0121,1.559998 -0.1996,3.067993 -0.416794,3.35202c-0.217194,0.283997 -0.682007,1.485962 -1.03299,2.672974c-0.578018,1.953003 -0.531616,2.338013 0.491989,4.078003c0.891495,1.515991 1.065399,2.402008 0.823105,4.195007c-0.237,1.752991 -0.047104,2.794006 0.830994,4.557983c0.626007,1.257996 1.270706,2.283997 1.432602,2.281006c0.161896,-0.003967 1.184402,-1.291992 2.272202,-2.863983zm330.689484,-3.147003c-0.222992,-2.194 -0.096985,-2.824005 0.715027,-3.561005c1.279999,-1.161987 1.251984,-3.347992 -0.076019,-5.959991c-0.84198,-1.657013 -0.958008,-2.389008 -0.556,-3.545013c0.278015,-0.800995 0.432007,-1.535004 0.339996,-1.628998c-0.091003,-0.096008 -0.30899,-1.088013 -0.484985,-2.205994c-0.175018,-1.117981 -0.432007,-2.145996 -0.570007,-2.28598c-0.139008,-0.139038 -1.231995,0.747986 -2.428986,1.970978c-3.029999,3.095001 -6.751007,5.833008 -10.529999,7.747986c-1.767029,0.89502 -3.212006,1.722015 -3.212006,1.837006c0,0.11499 1.260986,0.809021 2.802002,1.540009c3.113983,1.477997 9.878998,7.523987 11.667999,10.428986l1.155975,1.877014l0.725006,-1.774994c0.462006,-1.133026 0.626007,-2.739014 0.451996,-4.440002zm-294.42778,-3.781006c0.2061,0 0.899994,-0.48999 1.541,-1.089996c2.860992,-2.674011 -1.580612,-7.376007 -4.693497,-4.968994c-0.864609,0.667999 -1.069107,1.377991 -0.965805,3.35199c0.078094,1.485016 1.962494,3.391998 2.970001,3.005005c0.425003,-0.164001 0.9422,-0.298004 1.1483,-0.298004zm255.195786,-1.069c1.58902,-1.253998 1.687012,-2.356995 0.355011,-3.959015c-1.354004,-1.627991 -3.852997,-1.565002 -4.957001,0.125031c-0.96701,1.47998 -0.615997,3.871979 0.569,3.871979c0.417999,0 0.760986,0.232025 0.760986,0.515015c0,0.880981 1.851013,0.567993 3.272003,-0.553009zm-266.827789,-6.171997c1.591888,-0.295013 4.005493,-1.153992 5.362991,-1.910004c3.758011,-2.089996 8.17601,-6.792999 9.908203,-10.547974c2.481705,-5.379028 3.144302,-14.190018 1.543106,-20.524017c-0.250793,-0.993011 -0.577209,-2.501007 -0.725311,-3.352005c-0.792603,-4.554993 -2.264191,-8.709 -6.943298,-19.595993c-0.244202,-0.568008 -1.146286,-3.12001 -2.005692,-5.673004c-3.582214,-10.641006 -3.760101,-12.372009 -2.135803,-20.764008c1.385803,-7.160995 3.452194,-10.399994 8.481796,-13.296692c2.188202,-1.259903 3.142197,-1.4832 6.425293,-1.500702c2.91452,-0.015991 4.193314,0.209396 5.242508,0.923599c1.286514,0.87619 2.600403,3.536804 2.767899,5.606796c0.101807,1.255005 -2.365494,3.868011 -3.995895,4.231003c-1.971802,0.440002 -4.19191,-1.544998 -4.130692,-3.693008c0.075592,-2.667984 -2.123901,-2.759995 -5.439819,-0.22699c-2.312088,1.766998 -3.182281,3.660995 -3.182281,6.925995c0,5.234009 3.658203,7.625 10.023285,6.550995c4.144501,-0.69899 5.266113,-1.276001 7.882507,-4.051987c2.189209,-2.322006 2.22261,-2.337006 1.892105,-0.81601c-0.185104,0.850006 -1.072311,2.320999 -1.971298,3.267014c-2.743805,2.888 -4.997208,3.730988 -11.210205,4.191986c-3.330292,0.248001 -5.933304,0.695007 -6.42421,1.102997c-0.453293,0.377014 -1.571793,2.257019 -2.485794,4.175018l-1.661301,3.48999l2.641602,1.824997c3.138,2.167999 5.912201,3.031998 8.157394,2.542007c4.510513,-0.985001 11.265305,-6.294006 14.5354,-11.423004c0.963303,-1.51001 1.751312,-2.972992 1.751312,-3.250992c0,-0.278 0.231293,-0.506012 0.513992,-0.506012c0.2827,0 0.513992,-0.593994 0.513992,-1.319c0,-0.72699 0.211807,-1.188995 0.471405,-1.028c0.689606,0.427994 -0.313095,3.628006 -2.173798,6.936005c-2.307892,4.10199 -7.645996,9.576004 -10.811295,11.084991c-3.610001,1.722 -5.974014,4.133011 -6.054703,6.175003c-0.254898,6.458008 0.330002,8.587006 3.181793,11.581009c1.802704,1.89299 2.028809,1.802002 2.978714,-1.200012c0.780792,-2.465988 4.126083,-9.367996 5.2117,-10.752991c0.423996,-0.541 1.319992,-1.591995 1.990799,-2.335007c1.377502,-1.526001 7.753403,-11.225998 8.169403,-12.427994c0.148987,-0.431 0.740997,-1.828003 1.314987,-3.104004c1.521011,-3.384995 1.456009,-11.363007 -0.12999,-15.985992c-2.449997,-7.138306 -5.436615,-10.8703 -10.574203,-13.2146c-2.735596,-1.248505 -3.723007,-1.411407 -8.738297,-1.445007c-7.982712,-0.053589 -11.759216,1.492401 -17.350204,7.102005c-4.728699,4.743607 -7.659607,14.230606 -7.273407,23.543594c0.198807,4.794006 1.409012,11.087997 2.556,13.294006c0.401199,0.772003 0.730804,1.640991 0.732605,1.932999c0.001694,0.291 1.405991,3.655991 3.120804,7.477005c6.199997,13.819 8.495087,22.229996 7.675293,28.128998c-1.013092,7.283997 -4.0392,11.571991 -9.351501,13.251984c-6.687988,2.11499 -11.207794,0.276031 -11.207794,-4.561005c0,-1.855988 0.24939,-2.35199 1.764694,-3.510986c2.659195,-2.035004 4.984299,-1.671997 7.35321,1.147003c1.3367,1.591003 2.043396,1.345001 4.32579,-1.507996c2.848206,-3.560013 1.968201,-10.486008 -1.485199,-11.694c-3.062195,-1.070999 -8.674591,1.192993 -12.858002,5.185989c-2.386688,2.279007 -2.244904,0.486008 0.174011,-2.199997c2.017288,-2.23999 5.965988,-4.330002 10.722794,-5.677002c3.798508,-1.074997 4.7258,-2.28299 5.070709,-6.606003c0.245193,-3.077988 0.189194,-3.285995 -1.1082,-4.103989c-0.751511,-0.473999 -1.986008,-1.363998 -2.74321,-1.979004c-1.9133,-1.554001 -4.665909,-1.994995 -6.447601,-1.033005c-3.479904,1.878006 -9.842102,9.128998 -11.643005,13.268997c-1.125687,2.588013 -1.056503,0.229004 0.077911,-2.653c1.783096,-4.530991 3.317688,-6.853989 7.2724,-11.007996c2.201996,-2.313004 4.267899,-4.71199 4.59079,-5.332001c0.767609,-1.472 0.714401,-8.281998 -0.078491,-10.05899c-0.748505,-1.677002 -4.252213,-4.542007 -5.553406,-4.542007c-0.671295,0 -1.148499,0.695007 -1.681,2.449005c-0.408905,1.347 -1.077698,3.261993 -1.486099,4.253998c-1.195602,2.906998 -1.572205,3.852005 -1.644196,4.125992c-0.037109,0.142014 -0.581299,1.186005 -1.209106,2.320999c-5.289993,9.558014 -6.405289,11.851013 -7.524597,15.470001c-1.751999,5.664001 -2.709396,14.71701 -1.972702,18.652008c1.373398,7.334991 5.895111,13.527985 11.852097,16.233002c5.224304,2.371002 9.782806,2.963013 15.160309,1.964996l0,0zm288.454803,-0.802002c1.677979,-0.414001 4.005005,-1.356995 5.169006,-2.095978c4.304993,-2.732025 9.139984,-11.311005 9.671997,-17.162018c0.334991,-3.694 -0.447998,-11.770996 -1.355011,-13.953995c-0.175995,-0.425003 -0.557007,-1.866013 -0.846008,-3.203003c-0.498993,-2.307007 -1.760986,-5.305008 -3.427002,-8.141998c-0.415985,-0.709 -1.087982,-2.027008 -1.492004,-2.930008c-0.403992,-0.901993 -0.963989,-1.781998 -1.242981,-1.955002c-1.519989,-0.942001 -4.134003,-10.110001 -4.134003,-14.498001c0,-1.979996 -0.70401,-2.223999 -2.980988,-1.034988c-5.006012,2.612991 -7.440002,10.650986 -4.785004,15.804993c1.345001,2.612 4.561981,7.111008 6.985992,9.770004c2.015991,2.209991 4.77301,6.751999 5.700012,9.388c0.869995,2.472 0.618988,2.478989 -0.863007,0.022995c-1.52002,-2.518997 -5.005005,-7.069 -7.407013,-9.669006c-3.841003,-4.158997 -5.915985,-4.746994 -9.096985,-2.577988c-1.040009,0.709 -2.115997,1.289001 -2.391998,1.289001c-0.749023,0 -1.322021,6.569 -0.694,7.952988c0.515991,1.13501 1.023987,1.341003 7.052002,2.852005c3.487976,0.875 8.982971,6.057999 8.990997,8.483002c0.003998,1.031998 -0.387024,0.701004 -3.006012,-2.544998c-2.069,-2.565002 -7.510986,-4.725998 -10.488007,-4.166c-2.825989,0.531998 -6.446991,3.214996 -6.987,5.177994c-0.981995,3.568008 0.511993,7.320999 3.871002,9.719986c2.782013,1.987 4.791992,1.696014 4.791992,-0.69397c0,-1.938019 2.153015,-4.091019 4.091003,-4.091019c2.384003,0 5.578003,4.44899 4.962006,6.912003c-0.485992,1.941986 -3.540985,4.764008 -5.570007,5.145996c-5.379974,1.012024 -12.529999,-2.894989 -15.039978,-8.218994c-1.20401,-2.552002 -1.364014,-3.511993 -1.338013,-8.007004c0.015991,-2.807999 0.242004,-5.513992 0.501007,-6.011993c0.259003,-0.499008 0.764008,-1.951004 1.122986,-3.227997c0.359009,-1.276001 2.016022,-5.199005 3.681,-8.718002c7.759003,-16.393997 9.647003,-22.479004 9.96402,-32.112c0.119995,-3.641998 -0.025024,-6.597992 -0.365997,-7.477997c-0.311005,-0.800003 -0.883026,-2.658005 -1.271027,-4.128998c-1.134979,-4.292007 -3.820984,-9.4711 -6.097992,-11.755508c-6.016998,-6.036591 -15.553009,-8.401001 -22.123993,-5.484802c-4.535004,2.012711 -10.54599,7.563004 -12.730988,11.756302c-2.02301,3.881012 -3.818024,16.074997 -2.487,16.899994c0.260986,0.162018 0.633972,1.024017 0.828979,1.917999c0.346008,1.580017 1.899017,4.181 5.64502,9.452011c1.007996,1.417999 3.099976,4.666 4.649994,7.218994c1.549988,2.553009 3.037994,4.988998 3.307007,5.415009c0.507996,0.802994 1.940979,4.009995 3.28299,7.347992c0.427002,1.063995 1.117981,1.934006 1.535004,1.934006c2.401001,0 7.093994,-7.124008 7.192993,-10.921005c0.063995,-2.459991 -1.433014,-4.089996 -5.554993,-6.046005c-4.180023,-1.982986 -7.875,-4.865997 -10.662994,-8.317993c-5.796021,-7.177002 -4.950012,-7.531998 1.801971,-0.757004c2.686005,2.694 5.15802,4.899002 5.493011,4.899002c0.334991,0 1.246002,0.455002 2.024994,1.011002c0.778015,0.557007 2.425995,1.238998 3.661011,1.518005c2.67099,0.60199 4.191986,0.000992 7.601013,-3c1.953979,-1.721008 2.165985,-2.10701 1.669983,-3.037003c-0.312012,-0.585999 -0.567993,-2.445007 -0.567993,-4.130005c0,-2.075989 -0.244995,-3.269989 -0.76001,-3.697998c-0.466003,-0.389008 -2.834991,-0.686005 -6.126007,-0.769989c-5.520996,-0.141006 -8.127991,-0.924011 -10.911987,-3.277008c-1.07901,-0.911011 -3.048004,-4.213013 -2.513,-4.213013c0.152008,0 1.604004,0.893005 3.226013,1.984009c5.889984,3.960999 10.210999,4.556 13.16098,1.812012c2.309021,-2.14801 3.808014,-7.295013 2.382019,-8.179001c-0.28302,-0.17601 -0.514008,-0.858017 -0.514008,-1.517014c0,-1.466995 -2.985016,-3.897995 -4.786011,-3.897995c-0.916992,0 -1.432983,0.424988 -1.906006,1.570999c-0.643982,1.559998 -2.78598,3.070007 -4.353973,3.070007c-1.358002,0 -4.81601,-1.99501 -5.419006,-3.126007c-1.484009,-2.779999 1.690979,-6.781097 5.880005,-7.411301c4.414978,-0.6642 10.380981,1.987396 13.103973,5.82431c3.312012,4.666 4.496002,9.673996 4.313019,18.234985c-0.088013,4.113007 -0.403015,5.872009 -1.75,9.798004c-0.903015,2.630997 -1.838013,4.862 -2.076996,4.957001c-0.239014,0.093994 -0.434998,0.520004 -0.434998,0.944c0,0.733994 -1.340027,4.007996 -4.716003,11.518005c-2.248016,5.000992 -2.287018,5.107986 -3.417999,9.28299c-2.412018,8.906006 -2.683014,14.057999 -1.050995,19.965012c1.97699,7.152008 4.826996,11.029999 10.605988,14.432983c3.725006,2.192017 11.026001,2.551025 17.824005,0.876007zm-58.735992,-82.539001c2.018982,-1.834 0.34198,-5.850998 -2.443024,-5.850998c-2.80899,0 -4.263977,3.104996 -2.661987,5.679001c0.799988,1.285004 3.768005,1.38501 5.105011,0.171997zm-179.751007,-1.18399c1.041992,-2.021011 0.988983,-2.915009 -0.243011,-4.151001c-1.544998,-1.550003 -3.822998,-1.34201 -5.106003,0.466003c-1.319992,1.860001 -1.319992,2.160995 0.001999,3.846985c1.564011,1.99501 4.278015,1.912018 5.347015,-0.161987zm178.962006,-10.151703c7.746979,-2.605301 11.655975,-6.203201 14.358002,-13.216492c1.790985,-4.64682 1.796997,-9.724213 0.017975,-14.467514c-0.686981,-1.8302 -1.673981,-3.854691 -2.194,-4.498306c-4.889984,-6.062988 -8.450989,-8.60379 -14.855988,-10.601486c-3.95401,-1.233307 -5.415009,-1.427002 -10.503998,-1.392197c-6.390991,0.043488 -7.404999,0.156891 -12.07901,1.349884c-5.803986,1.481415 -8.22998,2.308502 -13.878998,4.732407c-6.261017,2.686798 -10.623016,4.2957 -12.585999,4.643295c-0.710999,0.125305 -3.569977,0.698715 -6.354004,1.273804c-8.097015,1.671799 -13.22699,0.490402 -17.803009,-4.099594c-3.15097,-3.161499 -3.922974,-8.282913 -1.854004,-12.296906c0.901001,-1.748695 3.476013,-2.662498 5.790039,-2.055099c1.952972,0.512711 2.974976,2.924698 2.502991,5.906799c-0.343994,2.171005 -0.96701,3.100906 -2.382019,3.5513c-2.307007,0.734604 0.027008,3.246902 3.901001,4.199707c4.572998,1.124496 8.14801,0.143402 9.63501,-2.644196c1.313995,-2.463303 0.109009,-8.021713 -2.298004,-10.594711c-1.472015,-1.573799 -2.96701,-3.702797 -2.96701,-4.223999c0,-0.659401 1.731995,0.188499 3.252991,1.592201c1.572021,1.450401 3.53302,5.257607 4.411011,8.562202c0.300995,1.134491 1.070007,2.694901 1.710022,3.46759c1.21701,1.470398 2.085999,1.646713 7.41098,1.502899c2.563995,-0.069183 2.711029,-0.156097 4.498016,-2.651093c1.015991,-1.418793 1.846985,-2.957901 1.846985,-3.420105c0,-3.108887 -8.417999,-10.903191 -13.920013,-12.888c-2.646973,-0.955093 -3.978973,-2.002792 -3.349976,-2.634796c0.563995,-0.565598 7.540009,1.975304 10.074005,3.669403c2.661987,1.779099 8.041992,7.182907 8.45697,8.492889c0.430023,1.359711 2.811035,2.500809 5.936035,2.843918c2.490997,0.27359 3.211975,0.116882 6.064972,-1.318008c2.961029,-1.489105 6.271027,-4.422104 6.271027,-5.556702c0,-0.594398 -0.985016,-0.882797 -5.358002,-1.569298c-3.120026,-0.489799 -8.296997,-2.244301 -9.033997,-3.0616c-0.142029,-0.1567 -1.067017,-0.685699 -2.057007,-1.175606c-0.989014,-0.489891 -2.83902,-1.515495 -4.112,-2.279099c-3.375031,-2.025993 -7.230011,-3.883492 -8.995026,-4.333992c-0.847961,-0.216507 -3.391968,-0.8927 -5.653992,-1.502907c-5.570984,-1.5028 -11.865997,-1.500694 -15.877991,0.005203c-3.053986,1.146294 -7.514008,4.524704 -10.539001,7.983902c-5.502991,6.293198 -6.088013,15.735504 -1.466003,23.6754c2.471008,4.243591 3.701996,5.4673 7.83902,7.788391c7.865997,4.413208 15.526978,4.353912 32.379974,-0.25119c1.95401,-0.53421 3.246033,-1.058105 7.710999,-3.126602c5.218018,-2.417999 9.338013,-3.921204 14.210022,-5.184402c5.675995,-1.471802 14.454987,-1.205597 19.200989,0.582504c8.183014,3.083298 12.686005,11.132095 10.437988,18.6595c-1.203979,4.032593 -5.273987,6.310898 -8.960999,5.015488c-1.716003,-0.603287 -3.789978,-3.39209 -3.789978,-5.097c0,-2.83728 2.753998,-5.410492 5.826996,-5.44458c1.381989,-0.014908 1.649994,-0.227905 1.786987,-1.422714c0.125,-1.082504 -0.390991,-1.997299 -2.242981,-3.984207c-2.601013,-2.789886 -4.490021,-3.496887 -7.715027,-2.889893c-1.55899,0.293411 -1.977997,0.689514 -2.826996,2.678406c-1.328003,3.105988 -1.257996,5.4431 0.304016,10.244598c0.716003,2.201508 1.177002,4.128601 1.02298,4.282806c-0.515991,0.518188 -1.763977,-1.681717 -2.868988,-5.058914c-0.919006,-2.811996 -1.040009,-4.025391 -0.75,-7.528992l0.346008,-4.176498l-1.787994,-0.85141c-0.984009,-0.468185 -2.569,-0.850891 -3.524017,-0.850891c-0.953979,0 -2.21698,-0.338806 -2.806,-0.752899c-1,-0.701813 -1.265991,-0.570801 -3.970001,1.9534c-2.416992,2.257202 -2.89798,2.995697 -2.89798,4.4478c0,1.926605 3.207001,8.261307 5.885986,11.627197c2.022003,2.5392 2.569,3.867599 1.59201,3.867599c-0.677002,0 -4.993011,-5.519394 -6.447021,-8.2453c-0.373993,-0.700302 -0.931976,-1.540298 -1.240997,-1.865692c-0.30899,-0.326004 -0.90799,-1.110809 -1.332001,-1.74411c-0.423981,-0.633698 -1.678986,-1.734695 -2.789001,-2.447388c-1.744995,-1.120605 -2.42099,-1.258301 -5.011993,-1.022598c-3.654999,0.332581 -7.088989,2.219986 -8.899017,4.891281c-0.709991,1.048309 -1.290985,2.159607 -1.290985,2.469009c0,0.309494 1.415009,0.827194 3.144989,1.150009c4.123016,0.76889 8.702026,2.990494 12.582031,6.104691c6.392975,5.130508 10.937988,8.560898 12.362976,9.331299c6.669006,3.604904 11.813019,4.127899 18.499023,1.880203zm-166.098007,-1.996796c4.597,-1.58931 9.62999,-4.258011 16.962997,-8.99501c10.509003,-6.788498 10.143982,-6.621902 15.806,-7.2052c1.761993,-0.181503 -3.542999,-5.875687 -6.546997,-7.026199c-1.216003,-0.465607 -3.417023,-0.882797 -4.891998,-0.926697c-2.601013,-0.077789 -2.751007,-0.003098 -5.010986,2.498505c-1.281006,1.418198 -2.865021,3.427795 -3.519028,4.465393c-1.457993,2.313293 -6.591995,7.653198 -7.358994,7.653198c-0.998001,0 -0.604004,-0.715698 2.488998,-4.511688c1.673996,-2.055511 3.654007,-4.98671 4.399002,-6.513611c1.666992,-3.417999 1.393997,-4.834595 -1.578003,-8.203995l-2.098999,-2.380402l-2.526993,0.751297c-4.430008,1.316605 -5.731995,2.261292 -6.313995,4.580811c-0.290009,1.152588 -0.632004,3.546387 -0.762009,5.31929c-0.341003,4.643204 -3.542999,9.903702 -7.192993,11.815903c-2.12001,1.110794 -2.387009,0.340302 -0.416016,-1.206696c0.928009,-0.729202 2.27301,-2.255096 2.988007,-3.391113c1.343002,-2.134995 3.223999,-7.19899 3.246002,-8.740891c0.065002,-4.545212 -6.929001,-6.810593 -11.937012,-3.866592c-1.552994,0.9133 -2.524994,1.919891 -2.903,3.006989c-0.768997,2.213303 -0.738998,2.353012 0.58902,2.711411c0.635986,0.171692 1.715988,0.749802 2.398987,1.284088c1.005997,0.785904 1.227005,1.395905 1.156998,3.191513c-0.222992,5.719498 -6.553986,6.414688 -9.681,1.062393c-3.619995,-6.197006 0.106003,-15.051804 8.055008,-19.1427c5.981003,-3.077606 15.311996,-2.871902 23.641998,0.521301c5.822006,2.371597 13.085007,5.148087 13.468002,5.148087c0.231995,0 1.518005,0.490906 2.858002,1.091217c1.339996,0.600189 3.209991,1.433594 4.154999,1.852295c10.60199,4.691696 21.85498,5.760696 28.718994,2.727997c6.852997,-3.027603 12.684998,-9.224091 14.294006,-15.186798c0.819977,-3.041107 0.854004,-3.914505 0.293976,-7.583893c-0.347992,-2.280914 -0.895996,-4.762108 -1.218964,-5.51371c-1.395996,-3.256599 -4.028015,-6.735695 -6.435028,-8.508499c-3.233002,-2.380798 -9.861969,-4.823799 -14.242004,-5.248299c-6.382965,-0.618698 -16.173004,1.7948 -26.213989,6.463303c-2.545013,1.182892 -4.972992,2.228394 -5.397003,2.323395c-1.010986,0.226196 -5.496994,1.7938 -7.453995,2.604797c-0.847992,0.351501 -2.003998,0.722 -2.569992,0.823303c-1.626007,0.291199 -1.525009,2.437302 0.243988,5.232605c1.800003,2.842194 3.685013,3.836594 8.112,4.278305c4.428986,0.441895 6.193024,-0.5466 12.502014,-7.008003c5.181,-5.305603 8.895996,-7.991203 10.571014,-7.643608c0.478973,0.099197 -0.254028,0.935608 -1.946014,2.222008c-4.203003,3.193199 -8.219025,7.796593 -10.316986,11.823296c-0.753998,1.449402 -0.720032,1.603607 0.868988,3.867599c0.910004,1.296906 1.787994,2.738708 1.951996,3.204102c0.248993,0.708099 0.869995,0.804596 3.804993,0.591507c5.132019,-0.372513 6.923004,-1.386917 7.656982,-4.336609c0.979004,-3.932892 3.292999,-8.094193 5.546021,-9.971405c1.160004,-0.966896 2.209991,-1.657394 2.332001,-1.534592c0.123016,0.122894 -0.606018,1.441795 -1.618011,2.930893c-3.333008,4.901001 -4.139984,6.893997 -3.847992,9.497696c0.53302,4.745804 4.462982,6.759598 9.863983,5.054916c5.024017,-1.585114 7.180023,-5.678513 3.75,-7.117203c-1.91098,-0.801102 -2.681976,-1.636414 -3.103973,-3.36171c-0.556,-2.269699 1.521973,-4.718193 4.002991,-4.718193c4.415985,0 6.389008,7.079796 3.559998,12.775002c-2.565979,5.165405 -8.798981,7.726807 -17.437988,7.164703c-5.384003,-0.350204 -7.944,-1.136597 -20.818024,-6.396301c-13.133987,-5.366013 -13.704987,-5.565613 -18.567978,-6.487503c-7.872009,-1.492706 -12.057999,-1.591507 -16.840012,-0.397598c-5.408997,1.350693 -10.249985,3.726593 -13.421997,6.587387c-1.355988,1.223709 -2.720993,2.225113 -3.03299,2.225113c-0.312012,0 -0.567017,0.435196 -0.567017,0.967896c0,0.5327 -0.315689,1.230896 -0.70108,1.551697c-0.385513,0.321304 -1.237213,2.473709 -1.893112,4.784012c-1.110809,3.914597 -1.151596,4.521988 -0.597504,8.924881c0.571304,4.535004 1.52681,7.716721 2.834808,9.436615c1.786896,2.349884 5.498901,5.676086 7.300888,6.543503c5.878006,2.828003 14.914001,3.5159 20.556015,1.56459l0,0l0,-0.000092zm187.293991,-8.095703c3.477997,-1.234009 8.231995,-1.792496 11.888,-1.395905c1.554993,0.168091 2.902008,0.248993 2.993011,0.178909c0.265991,-0.203201 -4.179016,-4.55191 -5.27002,-5.155807c-0.629974,-0.348602 -1.03598,-1.193298 -1.112976,-2.310791c-0.153015,-2.211807 -2.643005,-4.617401 -4.779999,-4.617401c-0.809021,0 -1.77002,-0.361511 -2.13501,-0.803513c-0.847992,-1.024597 -5.082001,-3.527786 -5.410004,-3.1987c-0.136993,0.1371 -0.010986,0.876602 0.279999,1.643402c0.834015,2.201004 0.664001,12.378998 -0.243011,14.556808c-1.003998,2.412903 -0.97699,2.956894 0.128998,2.474686c0.494019,-0.2155 2.142029,-0.832794 3.661011,-1.371689l0,0zm-219.502899,-1.765213c-1.18689,-2.692398 -2.107407,-10.937592 -1.640701,-14.692795c0.444595,-3.574799 -0.479095,-3.653687 -3.62999,-0.310501c-2.283813,2.422211 -2.891907,2.804306 -4.09671,2.573303c-1.161697,-0.222794 -1.776993,0.106705 -3.435699,1.838394c-1.637695,1.710007 -2.020599,2.486115 -2.020599,4.095612c0,1.605804 -0.293594,2.203003 -1.533905,3.122894c-1.522003,1.128906 -3.281494,3.8517 -2.800797,4.334412c0.137711,0.138184 1.227402,0.061295 2.421005,-0.170212c4.022705,-0.781296 11.2117,-0.502792 13.993103,0.541504c3.8078,1.430008 3.935303,1.368088 2.744293,-1.332611l0,0zm109.393921,-14.59639c1.511993,-0.92511 1.595001,-1.123703 1.201996,-2.872894c-0.414032,-1.839417 -1.697998,-3.299911 -2.93103,-3.332809c-2.217987,-0.058792 -5.134979,3.200806 -4.541962,5.075806c0.257965,0.816895 2.426971,1.904495 4.132965,2.073105c0.282013,0.027802 1.244995,-0.396606 2.138031,-0.943207zm0.126984,-27.880707c0.85199,-3.0905 3.699005,-7.367294 7.167999,-10.768394c2.522003,-2.472198 2.737,-2.844299 1.972015,-3.405701c-0.53302,-0.390999 -1.84201,-0.5355 -3.447998,-0.3806c-1.97702,0.190498 -2.819,0.040596 -3.563019,-0.634697c-0.535004,-0.486305 -1.925995,-1.012299 -3.089996,-1.169006c-1.716003,-0.230896 -2.343994,-0.070595 -3.318024,0.848007c-0.824982,0.777596 -2.122986,1.228096 -4.13797,1.436699c-1.654022,0.171295 -3.045013,0.5905 -3.186005,0.960297c-0.355011,0.927101 0.746002,2.799706 1.644989,2.799706c0.415009,0 0.752991,0.2155 0.752991,0.478996c0,0.263405 0.830994,1.362305 1.846008,2.441902c2.069,2.201401 5.170013,7.263901 5.667999,9.254395c0.407013,1.629097 0.868011,1.121101 1.69101,-1.861603z" fill="#000000" id="path2453"/>
  </g>
  <text xml:space="preserve" text-anchor="middle" font-family="serif" font-size="196" id="svg_1" y="290" x="327" stroke-width="0" stroke="#000000" fill="#000000">L</text>
 </g>
</svg>